<?xml version="1.0" encoding="utf-8"?><svg version="1.1" id="Layer_1" xmlns="http://www.w3.org/2000/svg" xmlns:xlink="http://www.w3.org/1999/xlink" x="0px" y="0px" viewBox="0 0 92.26 122.88" style="enable-background:new 0 0 92.26 122.88" xml:space="preserve"><g><path d="M41.04,67.52c2.65-2.65,2.44-5.35,1.96-8.71l6.93-6.93l6.99,18.18c4.84-4.84,6.13-2.84,4.68-9.21l-0.01-0.06l3.02-3.02 l-2.81-2.81l-1.27,1.27l-0.78-3.35l3.39-3.39l-2.81-2.81l-1.64,1.64l-0.98-4.21l7.16-7.16c1.01-1.01,0.74-2.92-0.6-4.26l0,0 c-1.34-1.34-3.26-1.61-4.26-0.6l-7.16,7.16l-4.26-0.99l1.66-1.65l-2.81-2.81l-3.41,3.41l-3.35-0.78l1.29-1.29l-2.81-2.81 l-3.04,3.04c-6.32-1.48-4.36-0.46-9.36,4.54l18.31,7.12l-6.91,6.91c-3.4-0.68-5.78-0.97-8.74,2l3.18,3.24 c1.31,0.16,2.26,0.23,2.95,0.32c0.2,0.39,0.47,0.77,0.81,1.11l0,0c0.38,0.38,0.82,0.68,1.26,0.88c0.11,0.73,0.22,1.74,0.45,3.16 L41.04,67.52L41.04,67.52L41.04,67.52z M47.49,116.85c6.31-4.01,11.98-8.87,16.92-14.29c10.73-11.75,17.97-26.11,20.87-40.2 c2.88-13.91,1.52-27.54-4.85-38.06c-1.81-3.02-4.08-5.78-6.78-8.26c-7.74-7.05-16.6-10.41-25.52-10.5 c-9.37-0.07-18.87,3.45-27.27,10.14c-3.58,2.86-6.53,6.15-8.82,9.78c-5.9,9.28-7.69,20.8-5.74,32.85 c1.97,12.23,7.78,25.02,17.04,36.61c6.44,8.08,14.54,15.58,24.18,21.91L47.49,116.85L47.49,116.85L47.49,116.85z M68.52,106.27 c-5.6,6.12-12.09,11.61-19.42,16.06c-0.88,0.66-2.13,0.75-3.13,0.11c-10.8-6.87-19.85-15.13-26.99-24.09 C9.15,86.02,2.94,72.34,0.83,59.16c-2.15-13.36-0.14-26.2,6.51-36.68c2.63-4.13,5.97-7.89,10.07-11.14 C26.78,3.88,37.51-0.07,48.17,0c10.28,0.09,20.42,3.9,29.22,11.93c3.09,2.81,5.67,5.99,7.78,9.48c7.15,11.77,8.69,26.81,5.56,42.01 c-3.11,15.04-10.8,30.33-22.19,42.8L68.52,106.27L68.52,106.27L68.52,106.27z"/></g></svg>