<svg xmlns="http://www.w3.org/2000/svg" width="92.265" height="122.876" viewBox="0 0 92.265 122.876">
  <g id="airport" transform="translate(-0.005 0.001)">
    <path id="Path_1" data-name="Path 1" d="M41.04,67.52c2.65-2.65,2.44-5.35,1.96-8.71l6.93-6.93,6.99,18.18c4.84-4.84,6.13-2.84,4.68-9.21l-.01-.06,3.02-3.02L61.8,54.96l-1.27,1.27-.78-3.35,3.39-3.39-2.81-2.81-1.64,1.64-.98-4.21,7.16-7.16c1.01-1.01.74-2.92-.6-4.26h0c-1.34-1.34-3.26-1.61-4.26-.6l-7.16,7.16-4.26-.99,1.66-1.65L47.44,33.8l-3.41,3.41-3.35-.78,1.29-1.29-2.81-2.81-3.04,3.04c-6.32-1.48-4.36-.46-9.36,4.54l18.31,7.12-6.91,6.91c-3.4-.68-5.78-.97-8.74,2l3.18,3.24c1.31.16,2.26.23,2.95.32a4.439,4.439,0,0,0,.81,1.11h0a4.359,4.359,0,0,0,1.26.88c.11.73.22,1.74.45,3.16l2.97,2.87Zm6.45,49.33a83.732,83.732,0,0,0,16.92-14.29,86.643,86.643,0,0,0,20.87-40.2c2.88-13.91,1.52-27.54-4.85-38.06a37.127,37.127,0,0,0-6.78-8.26C65.91,8.99,57.05,5.63,48.13,5.54c-9.37-.07-18.87,3.45-27.27,10.14a39.5,39.5,0,0,0-8.82,9.78c-5.9,9.28-7.69,20.8-5.74,32.85,1.97,12.23,7.78,25.02,17.04,36.61a103.575,103.575,0,0,0,24.18,21.91l-.03.02Zm21.03-10.58A89.034,89.034,0,0,1,49.1,122.33a2.752,2.752,0,0,1-3.13.11A109.83,109.83,0,0,1,18.98,98.35C9.15,86.02,2.94,72.34.83,59.16-1.32,45.8.69,32.96,7.34,22.48A45.03,45.03,0,0,1,17.41,11.34C26.78,3.88,37.51-.07,48.17,0,58.45.09,68.59,3.9,77.39,11.93a42.388,42.388,0,0,1,7.78,9.48c7.15,11.77,8.69,26.81,5.56,42.01a92.337,92.337,0,0,1-22.19,42.8l-.02.05Z" fill="#1adb18"/>
  </g>
</svg>
