<svg xmlns="http://www.w3.org/2000/svg" width="223.871" height="56.461" viewBox="0 0 223.871 56.461">
  <g id="Group_1" data-name="Group 1" transform="translate(-584 -626.195)" opacity="0.02">
    <path id="Path_5" data-name="Path 5" d="M80.344,173.711H68.492L47.168,138.348v35.363H35.32V118.762H47.168l21.359,35.4v-35.4H80.344Zm0,0" transform="translate(548.68 508.191)"/>
    <path id="Path_6" data-name="Path 6" d="M111.176,154.766H89.625v-9.211h21.551Zm0,0" transform="translate(548.68 508.191)"/>
    <path id="Path_7" data-name="Path 7" d="M142.914,118.762h11.813v37.926a17.819,17.819,0,0,1-2.434,9.492,16.38,16.38,0,0,1-6.621,6.133,20.459,20.459,0,0,1-9.473,2.152,23.825,23.825,0,0,1-9.605-1.832,14.415,14.415,0,0,1-6.606-5.621,17.775,17.775,0,0,1-2.4-9.645h11.926q0,4.307,1.793,5.926a7.013,7.013,0,0,0,4.89,1.625,6.471,6.471,0,0,0,3.547-.965,6.287,6.287,0,0,0,2.34-2.793,10.832,10.832,0,0,0,.828-4.472Zm0,0" transform="translate(548.68 508.191)"/>
    <path id="Path_8" data-name="Path 8" d="M197.637,145.066a28.908,28.908,0,0,0-1.356-9.511,12.088,12.088,0,0,0-3.965-5.813,11.046,11.046,0,0,0-12.566,0,12.009,12.009,0,0,0-3.906,5.813,29.156,29.156,0,0,0-1.34,9.511v2.3a28.847,28.847,0,0,0,1.359,9.492,12.348,12.348,0,0,0,3.942,5.868,10,10,0,0,0,6.32,2,9.885,9.885,0,0,0,6.246-2,12.187,12.187,0,0,0,3.926-5.868,29.207,29.207,0,0,0,1.34-9.492Zm11.965,2.3a32.561,32.561,0,0,1-2.985,14.512,22.115,22.115,0,0,1-8.262,9.32,22.754,22.754,0,0,1-12.23,3.266,23.028,23.028,0,0,1-12.281-3.266,22.225,22.225,0,0,1-8.36-9.32,32.192,32.192,0,0,1-3.019-14.512v-2.226a32.4,32.4,0,0,1,3-14.512,22.293,22.293,0,0,1,8.32-9.34,24.505,24.505,0,0,1,24.512,0,22.341,22.341,0,0,1,8.305,9.34,32.4,32.4,0,0,1,3,14.512Zm0,0" transform="translate(548.68 508.191)"/>
    <path id="Path_9" data-name="Path 9" d="M235.227,143.141l11.058-24.379h12.906L241.266,153.82v19.891H229.227V153.82l-17.965-35.058h12.945Zm0,0" transform="translate(548.68 508.191)"/>
  </g>
</svg>
