<?xml version="1.0" encoding="UTF-8"?>
<svg xmlns="http://www.w3.org/2000/svg" xmlns:xlink="http://www.w3.org/1999/xlink" width="283.465pt" height="283.465pt" viewBox="0 0 283.465 283.465" version="1.1">
<g id="surface11">
<path style=" stroke:none;fill-rule:nonzero;fill:rgb(0%,0%,0%);fill-opacity:1;" d="M 204.429688 115.085938 L 201.492188 115.085938 L 201.492188 92.808594 L 204.429688 92.808594 Z M 211.574219 95.210938 L 194.363281 95.210938 L 194.363281 92.808594 L 211.574219 92.808594 Z M 211.574219 95.210938 "/>
<path style=" stroke:none;fill-rule:nonzero;fill:rgb(0%,0%,0%);fill-opacity:1;" d="M 220.144531 94.765625 L 220.113281 92.808594 L 222.058594 92.808594 L 230.578125 115.085938 L 227.535156 115.085938 Z M 227.167969 109.253906 L 214.636719 109.253906 L 214.636719 106.851562 L 227.167969 106.851562 Z M 214.007812 115.085938 L 210.949219 115.085938 L 219.457031 92.808594 L 221.414062 92.808594 L 221.367188 94.765625 Z M 214.007812 115.085938 "/>
<path style=" stroke:none;fill-rule:nonzero;fill:rgb(0%,0%,0%);fill-opacity:1;" d="M 240.863281 101.359375 L 246.183594 92.808594 L 249.660156 92.808594 L 242.636719 103.839844 L 249.828125 115.085938 L 246.324219 115.085938 L 240.863281 106.363281 L 235.367188 115.085938 L 231.878906 115.085938 L 239.085938 103.839844 L 232.03125 92.808594 L 235.523438 92.808594 Z M 240.863281 101.359375 "/>
<path style=" stroke:none;fill-rule:nonzero;fill:rgb(0%,0%,0%);fill-opacity:1;" d="M 256.421875 115.085938 L 253.453125 115.085938 L 253.453125 92.808594 L 256.421875 92.808594 Z M 256.421875 115.085938 "/>
<path style=" stroke:none;fill-rule:nonzero;fill:rgb(0%,0%,0%);fill-opacity:1;" d="M 80.34375 173.710938 L 68.492188 173.710938 L 47.167969 138.347656 L 47.167969 173.710938 L 35.320312 173.710938 L 35.320312 118.761719 L 47.167969 118.761719 L 68.527344 154.160156 L 68.527344 118.761719 L 80.34375 118.761719 Z M 80.34375 173.710938 "/>
<path style=" stroke:none;fill-rule:nonzero;fill:rgb(0%,0%,0%);fill-opacity:1;" d="M 111.175781 154.765625 L 89.625 154.765625 L 89.625 145.554688 L 111.175781 145.554688 Z M 111.175781 154.765625 "/>
<path style=" stroke:none;fill-rule:nonzero;fill:rgb(0%,0%,0%);fill-opacity:1;" d="M 142.914062 118.761719 L 154.726562 118.761719 L 154.726562 156.6875 C 154.726562 160.363281 153.917969 163.527344 152.292969 166.179688 C 150.671875 168.835938 148.460938 170.878906 145.671875 172.3125 C 142.878906 173.746094 139.71875 174.464844 136.199219 174.464844 C 132.597656 174.464844 129.398438 173.855469 126.59375 172.632812 C 123.785156 171.414062 121.585938 169.539062 119.988281 167.011719 C 118.390625 164.480469 117.589844 161.269531 117.589844 157.367188 L 129.515625 157.367188 C 129.515625 160.238281 130.113281 162.210938 131.308594 163.292969 C 132.503906 164.375 134.132812 164.917969 136.199219 164.917969 C 137.554688 164.917969 138.738281 164.59375 139.746094 163.953125 C 140.75 163.3125 141.53125 162.382812 142.085938 161.160156 C 142.636719 159.941406 142.914062 158.449219 142.914062 156.6875 Z M 142.914062 118.761719 "/>
<path style=" stroke:none;fill-rule:nonzero;fill:rgb(0%,0%,0%);fill-opacity:1;" d="M 197.636719 145.066406 C 197.636719 141.292969 197.183594 138.121094 196.28125 135.554688 C 195.371094 132.988281 194.050781 131.050781 192.316406 129.742188 C 190.578125 128.433594 188.492188 127.78125 186.050781 127.78125 C 183.5625 127.78125 181.457031 128.433594 179.75 129.742188 C 178.035156 131.050781 176.734375 132.988281 175.84375 135.554688 C 174.949219 138.121094 174.503906 141.292969 174.503906 145.066406 L 174.503906 147.367188 C 174.503906 151.117188 174.957031 154.28125 175.863281 156.859375 C 176.769531 159.4375 178.082031 161.394531 179.804688 162.726562 C 181.527344 164.0625 183.636719 164.726562 186.125 164.726562 C 188.566406 164.726562 190.648438 164.0625 192.371094 162.726562 C 194.097656 161.394531 195.40625 159.4375 196.296875 156.859375 C 197.191406 154.28125 197.636719 151.117188 197.636719 147.367188 Z M 209.601562 147.367188 C 209.601562 153.003906 208.605469 157.839844 206.617188 161.878906 C 204.632812 165.917969 201.875 169.023438 198.355469 171.199219 C 194.832031 173.378906 190.757812 174.464844 186.125 174.464844 C 181.496094 174.464844 177.402344 173.378906 173.84375 171.199219 C 170.28125 169.023438 167.496094 165.917969 165.484375 161.878906 C 163.46875 157.839844 162.464844 153.003906 162.464844 147.367188 L 162.464844 145.140625 C 162.464844 139.503906 163.464844 134.667969 165.464844 130.628906 C 167.464844 126.589844 170.238281 123.476562 173.785156 121.289062 C 177.332031 119.097656 181.421875 118.003906 186.050781 118.003906 C 190.679688 118.003906 194.761719 119.097656 198.296875 121.289062 C 201.832031 123.476562 204.601562 126.589844 206.601562 130.628906 C 208.601562 134.667969 209.601562 139.503906 209.601562 145.140625 Z M 209.601562 147.367188 "/>
<path style=" stroke:none;fill-rule:nonzero;fill:rgb(0%,0%,0%);fill-opacity:1;" d="M 235.226562 143.140625 L 246.285156 118.761719 L 259.191406 118.761719 L 241.265625 153.820312 L 241.265625 173.710938 L 229.226562 173.710938 L 229.226562 153.820312 L 211.261719 118.761719 L 224.207031 118.761719 Z M 235.226562 143.140625 "/>
<path style=" stroke:none;fill-rule:nonzero;fill:rgb(0%,0%,0%);fill-opacity:1;" d="M 48.105469 218.167969 C 48.105469 218.835938 47.753906 219.15625 47.085938 219.15625 C 46.417969 219.15625 46.101562 218.835938 46.101562 218.167969 C 46.101562 217.5 46.417969 217.148438 47.085938 217.148438 C 47.753906 217.148438 48.105469 217.5 48.105469 218.167969 M 44.507812 218.167969 C 44.507812 218.835938 44.15625 219.15625 43.488281 219.15625 C 42.820312 219.15625 42.5 218.835938 42.5 218.167969 C 42.5 217.5 42.820312 217.148438 43.488281 217.148438 C 44.15625 217.148438 44.507812 217.5 44.507812 218.167969 M 53.105469 195.492188 L 52.660156 197.023438 C 52.054688 195.652344 50.84375 194.984375 49.09375 194.984375 C 46.480469 194.984375 45.175781 196.386719 45.175781 199.21875 L 45.175781 201.671875 L 53.042969 201.640625 L 53.042969 208.359375 L 53.074219 208.359375 C 52.945312 212.277344 50.300781 214.21875 45.175781 214.21875 C 42.152344 214.21875 40.015625 213.359375 38.773438 211.640625 C 37.789062 210.300781 37.152344 208.074219 36.863281 204.921875 L 38.359375 204.441406 C 38.359375 210.207031 40.304688 212.753906 45.175781 212.722656 C 49.445312 212.660156 51.578125 211.160156 51.578125 208.230469 L 51.578125 203.007812 L 43.648438 203.007812 L 43.648438 198.964844 C 43.648438 195.6875 45.621094 193.648438 48.902344 193.648438 C 50.621094 193.648438 52.023438 194.253906 53.105469 195.492188 "/>
<path style=" stroke:none;fill-rule:nonzero;fill:rgb(0%,0%,0%);fill-opacity:1;" d="M 64.699219 201.542969 C 64.730469 197.691406 63.519531 195.78125 61.007812 195.78125 C 58.332031 195.78125 56.992188 197.691406 56.992188 201.542969 C 56.992188 203.007812 57.3125 204.21875 57.980469 205.175781 C 58.714844 206.226562 59.761719 206.734375 61.132812 206.734375 L 64.636719 206.734375 C 64.667969 204.539062 64.667969 202.785156 64.699219 201.542969 M 70.527344 208.074219 L 65.910156 208.074219 C 65.75 209.855469 65.175781 211.257812 64.191406 212.277344 C 63.171875 213.390625 61.800781 213.964844 60.050781 213.964844 C 59.128906 213.964844 58.171875 213.773438 57.25 213.390625 L 56.640625 211.988281 C 57.597656 212.46875 58.714844 212.691406 60.019531 212.691406 C 61.355469 212.691406 62.40625 212.246094 63.171875 211.320312 C 63.871094 210.492188 64.285156 209.410156 64.414062 208.074219 L 61.132812 208.074219 C 59.347656 208.039062 57.949219 207.371094 56.929688 206.097656 C 56.007812 204.921875 55.558594 203.421875 55.558594 201.542969 C 55.558594 199.472656 55.972656 197.851562 56.800781 196.609375 C 57.726562 195.207031 59.128906 194.507812 61.007812 194.507812 C 64.414062 194.507812 66.101562 196.863281 66.101562 201.542969 C 66.101562 203.488281 66.070312 205.238281 66.003906 206.734375 L 70.527344 206.734375 Z M 70.527344 208.074219 "/>
<path style=" stroke:none;fill-rule:nonzero;fill:rgb(0%,0%,0%);fill-opacity:1;" d="M 75.65625 208.074219 L 69.734375 208.074219 L 69.734375 206.734375 L 75.65625 206.734375 Z M 75.65625 208.074219 "/>
<path style=" stroke:none;fill-rule:nonzero;fill:rgb(0%,0%,0%);fill-opacity:1;" d="M 80.816406 208.074219 L 74.894531 208.074219 L 74.894531 206.734375 L 80.816406 206.734375 Z M 80.816406 208.074219 "/>
<path style=" stroke:none;fill-rule:nonzero;fill:rgb(0%,0%,0%);fill-opacity:1;" d="M 85.976562 208.074219 L 80.050781 208.074219 L 80.050781 206.734375 L 85.976562 206.734375 Z M 85.976562 208.074219 "/>
<path style=" stroke:none;fill-rule:nonzero;fill:rgb(0%,0%,0%);fill-opacity:1;" d="M 91.132812 208.074219 L 85.210938 208.074219 L 85.210938 206.734375 L 91.132812 206.734375 Z M 91.132812 208.074219 "/>
<path style=" stroke:none;fill-rule:nonzero;fill:rgb(0%,0%,0%);fill-opacity:1;" d="M 96.292969 208.074219 L 90.371094 208.074219 L 90.371094 206.734375 L 96.292969 206.734375 Z M 96.292969 208.074219 "/>
<path style=" stroke:none;fill-rule:nonzero;fill:rgb(0%,0%,0%);fill-opacity:1;" d="M 101.453125 208.074219 L 95.53125 208.074219 L 95.53125 206.734375 L 101.453125 206.734375 Z M 101.453125 208.074219 "/>
<path style=" stroke:none;fill-rule:nonzero;fill:rgb(0%,0%,0%);fill-opacity:1;" d="M 106.613281 208.074219 L 100.691406 208.074219 L 100.691406 206.734375 L 106.613281 206.734375 Z M 106.613281 208.074219 "/>
<path style=" stroke:none;fill-rule:nonzero;fill:rgb(0%,0%,0%);fill-opacity:1;" d="M 111.773438 208.074219 L 105.851562 208.074219 L 105.851562 206.734375 L 111.773438 206.734375 Z M 111.773438 208.074219 "/>
<path style=" stroke:none;fill-rule:nonzero;fill:rgb(0%,0%,0%);fill-opacity:1;" d="M 116.933594 208.074219 L 111.007812 208.074219 L 111.007812 206.734375 L 116.933594 206.734375 Z M 116.933594 208.074219 "/>
<path style=" stroke:none;fill-rule:nonzero;fill:rgb(0%,0%,0%);fill-opacity:1;" d="M 122.089844 208.074219 L 116.167969 208.074219 L 116.167969 206.734375 L 122.089844 206.734375 Z M 122.089844 208.074219 "/>
<path style=" stroke:none;fill-rule:nonzero;fill:rgb(0%,0%,0%);fill-opacity:1;" d="M 127.25 208.074219 L 121.328125 208.074219 L 121.328125 206.734375 L 127.25 206.734375 Z M 127.25 208.074219 "/>
<path style=" stroke:none;fill-rule:nonzero;fill:rgb(0%,0%,0%);fill-opacity:1;" d="M 132.410156 208.074219 L 126.488281 208.074219 L 126.488281 206.734375 L 132.410156 206.734375 Z M 132.410156 208.074219 "/>
<path style=" stroke:none;fill-rule:nonzero;fill:rgb(0%,0%,0%);fill-opacity:1;" d="M 137.570312 208.074219 L 131.648438 208.074219 L 131.648438 206.734375 L 137.570312 206.734375 Z M 137.570312 208.074219 "/>
<path style=" stroke:none;fill-rule:nonzero;fill:rgb(0%,0%,0%);fill-opacity:1;" d="M 142.730469 208.074219 L 136.804688 208.074219 L 136.804688 206.734375 L 142.730469 206.734375 Z M 142.730469 208.074219 "/>
<path style=" stroke:none;fill-rule:nonzero;fill:rgb(0%,0%,0%);fill-opacity:1;" d="M 152.539062 213.261719 C 152.539062 213.933594 152.21875 214.25 151.550781 214.25 C 150.882812 214.25 150.53125 213.933594 150.53125 213.261719 C 150.53125 212.59375 150.882812 212.246094 151.550781 212.246094 C 152.21875 212.246094 152.539062 212.59375 152.539062 213.261719 M 163.238281 208.074219 L 141.710938 208.074219 L 141.710938 206.734375 L 156.742188 206.734375 L 156.742188 204.347656 C 156.742188 201.449219 156.488281 199.378906 155.976562 198.136719 C 155.183594 196.097656 153.558594 195.078125 151.105469 195.078125 C 149.417969 195.078125 147.761719 195.84375 146.203125 197.339844 L 145.148438 196.289062 C 146.996094 194.539062 148.972656 193.648438 151.105469 193.648438 C 154.097656 193.648438 156.136719 194.761719 157.1875 197.023438 C 157.921875 198.582031 158.300781 201.003906 158.300781 204.347656 L 158.300781 206.734375 L 163.238281 206.734375 Z M 163.238281 208.074219 "/>
<path style=" stroke:none;fill-rule:nonzero;fill:rgb(0%,0%,0%);fill-opacity:1;" d="M 168.238281 208.074219 L 162.316406 208.074219 L 162.316406 206.734375 L 168.238281 206.734375 Z M 168.238281 208.074219 "/>
<path style=" stroke:none;fill-rule:nonzero;fill:rgb(0%,0%,0%);fill-opacity:1;" d="M 173.398438 208.074219 L 167.476562 208.074219 L 167.476562 206.734375 L 173.398438 206.734375 Z M 173.398438 208.074219 "/>
<path style=" stroke:none;fill-rule:nonzero;fill:rgb(0%,0%,0%);fill-opacity:1;" d="M 178.558594 208.074219 L 172.636719 208.074219 L 172.636719 206.734375 L 178.558594 206.734375 Z M 178.558594 208.074219 "/>
<path style=" stroke:none;fill-rule:nonzero;fill:rgb(0%,0%,0%);fill-opacity:1;" d="M 183.71875 208.074219 L 177.796875 208.074219 L 177.796875 206.734375 L 183.71875 206.734375 Z M 183.71875 208.074219 "/>
<path style=" stroke:none;fill-rule:nonzero;fill:rgb(0%,0%,0%);fill-opacity:1;" d="M 188.878906 208.074219 L 182.953125 208.074219 L 182.953125 206.734375 L 188.878906 206.734375 Z M 188.878906 208.074219 "/>
<path style=" stroke:none;fill-rule:nonzero;fill:rgb(0%,0%,0%);fill-opacity:1;" d="M 194.035156 208.074219 L 188.113281 208.074219 L 188.113281 206.734375 L 194.035156 206.734375 Z M 194.035156 208.074219 "/>
<path style=" stroke:none;fill-rule:nonzero;fill:rgb(0%,0%,0%);fill-opacity:1;" d="M 199.195312 208.074219 L 193.273438 208.074219 L 193.273438 206.734375 L 199.195312 206.734375 Z M 199.195312 208.074219 "/>
<path style=" stroke:none;fill-rule:nonzero;fill:rgb(0%,0%,0%);fill-opacity:1;" d="M 204.355469 208.074219 L 198.433594 208.074219 L 198.433594 206.734375 L 204.355469 206.734375 Z M 204.355469 208.074219 "/>
<path style=" stroke:none;fill-rule:nonzero;fill:rgb(0%,0%,0%);fill-opacity:1;" d="M 209.515625 208.074219 L 203.59375 208.074219 L 203.59375 206.734375 L 209.515625 206.734375 Z M 209.515625 208.074219 "/>
<path style=" stroke:none;fill-rule:nonzero;fill:rgb(0%,0%,0%);fill-opacity:1;" d="M 214.675781 208.074219 L 208.753906 208.074219 L 208.753906 206.734375 L 214.675781 206.734375 Z M 214.675781 208.074219 "/>
<path style=" stroke:none;fill-rule:nonzero;fill:rgb(0%,0%,0%);fill-opacity:1;" d="M 219.835938 208.074219 L 213.910156 208.074219 L 213.910156 206.734375 L 219.835938 206.734375 Z M 219.835938 208.074219 "/>
<path style=" stroke:none;fill-rule:nonzero;fill:rgb(0%,0%,0%);fill-opacity:1;" d="M 224.992188 208.074219 L 219.070312 208.074219 L 219.070312 206.734375 L 224.992188 206.734375 Z M 224.992188 208.074219 "/>
<path style=" stroke:none;fill-rule:nonzero;fill:rgb(0%,0%,0%);fill-opacity:1;" d="M 230.152344 208.074219 L 224.230469 208.074219 L 224.230469 206.734375 L 230.152344 206.734375 Z M 230.152344 208.074219 "/>
<path style=" stroke:none;fill-rule:nonzero;fill:rgb(0%,0%,0%);fill-opacity:1;" d="M 235.3125 208.074219 L 229.390625 208.074219 L 229.390625 206.734375 L 235.3125 206.734375 Z M 235.3125 208.074219 "/>
<path style=" stroke:none;fill-rule:nonzero;fill:rgb(0%,0%,0%);fill-opacity:1;" d="M 238.5625 188.488281 C 238.5625 189.1875 238.242188 189.539062 237.574219 189.539062 C 236.90625 189.539062 236.554688 189.1875 236.554688 188.488281 C 236.554688 187.820312 236.90625 187.46875 237.574219 187.46875 C 238.242188 187.46875 238.5625 187.820312 238.5625 188.488281 M 241.425781 202.753906 C 241.425781 205.90625 239.390625 208.074219 236.171875 208.074219 L 234.074219 208.074219 L 234.074219 206.734375 L 235.984375 206.734375 C 238.625 206.734375 239.933594 205.335938 239.933594 202.5 L 239.933594 194.15625 L 241.425781 193.648438 Z M 241.425781 202.753906 "/>
<path style=" stroke:none;fill-rule:nonzero;fill:rgb(0%,0%,0%);fill-opacity:1;" d="M 246.078125 208.074219 L 244.582031 208.074219 L 244.582031 187.976562 L 246.078125 187.53125 Z M 247.574219 214.21875 L 242.351562 214.21875 L 243.019531 213.328125 L 243.847656 213.328125 L 243.847656 212.976562 C 243.847656 211.480469 244.550781 210.746094 245.953125 210.746094 C 246.460938 210.746094 246.90625 210.9375 247.289062 211.320312 L 246.746094 212.085938 C 246.460938 211.765625 246.140625 211.609375 245.792969 211.609375 C 245.125 211.609375 244.773438 212.054688 244.773438 212.976562 L 244.773438 213.328125 L 247.574219 213.328125 Z M 247.574219 214.21875 "/>
</g>
</svg>
