<?xml version="1.0" encoding="UTF-8"?>
<svg xmlns="http://www.w3.org/2000/svg" xmlns:xlink="http://www.w3.org/1999/xlink" width="283.465pt" height="283.465pt" viewBox="0 0 283.465 283.465" version="1.1">
<g id="surface16">
<path style=" stroke:none;fill-rule:nonzero;fill:rgb(0%,0%,0%);fill-opacity:1;" d="M 235.976562 276.367188 L 47.488281 276.367188 C 25.273438 276.367188 7.097656 258.191406 7.097656 235.976562 L 7.097656 47.488281 C 7.097656 25.273438 25.273438 7.097656 47.488281 7.097656 L 235.976562 7.097656 C 258.191406 7.097656 276.367188 25.273438 276.367188 47.488281 L 276.367188 235.976562 C 276.367188 258.191406 258.191406 276.367188 235.976562 276.367188 "/>
<path style=" stroke:none;fill-rule:nonzero;fill:rgb(100%,100%,100%);fill-opacity:1;" d="M 201.253906 100.523438 L 198.316406 100.523438 L 198.316406 78.246094 L 201.253906 78.246094 Z M 208.398438 80.644531 L 191.183594 80.644531 L 191.183594 78.242188 L 208.398438 78.242188 Z M 208.398438 80.644531 "/>
<path style=" stroke:none;fill-rule:nonzero;fill:rgb(100%,100%,100%);fill-opacity:1;" d="M 216.96875 80.203125 L 216.9375 78.246094 L 218.878906 78.246094 L 227.402344 100.523438 L 224.355469 100.523438 Z M 223.988281 94.691406 L 211.460938 94.691406 L 211.460938 92.289062 L 223.988281 92.289062 Z M 210.832031 100.523438 L 207.773438 100.523438 L 216.277344 78.246094 L 218.238281 78.246094 L 218.191406 80.203125 Z M 210.832031 100.523438 "/>
<path style=" stroke:none;fill-rule:nonzero;fill:rgb(100%,100%,100%);fill-opacity:1;" d="M 237.683594 86.796875 L 243.007812 78.246094 L 246.480469 78.246094 L 239.457031 89.277344 L 246.648438 100.523438 L 243.144531 100.523438 L 237.683594 91.800781 L 232.191406 100.523438 L 228.703125 100.523438 L 235.910156 89.277344 L 228.855469 78.246094 L 232.34375 78.246094 Z M 237.683594 86.796875 "/>
<path style=" stroke:none;fill-rule:nonzero;fill:rgb(100%,100%,100%);fill-opacity:1;" d="M 253.242188 100.523438 L 250.273438 100.523438 L 250.273438 78.246094 L 253.242188 78.246094 Z M 253.242188 100.523438 "/>
<path style=" stroke:none;fill-rule:nonzero;fill:rgb(100%,100%,100%);fill-opacity:1;" d="M 77.160156 159.148438 L 65.308594 159.148438 L 43.988281 123.785156 L 43.988281 159.148438 L 32.136719 159.148438 L 32.136719 104.199219 L 43.988281 104.199219 L 65.347656 139.597656 L 65.347656 104.199219 L 77.160156 104.199219 Z M 77.160156 159.148438 "/>
<path style=" stroke:none;fill-rule:nonzero;fill:rgb(100%,100%,100%);fill-opacity:1;" d="M 107.992188 140.203125 L 86.445312 140.203125 L 86.445312 130.992188 L 107.992188 130.992188 Z M 107.992188 140.203125 "/>
<path style=" stroke:none;fill-rule:nonzero;fill:rgb(100%,100%,100%);fill-opacity:1;" d="M 139.734375 104.199219 L 151.546875 104.199219 L 151.546875 142.125 C 151.546875 145.800781 150.734375 148.964844 149.113281 151.617188 C 147.488281 154.273438 145.28125 156.316406 142.488281 157.75 C 139.695312 159.183594 136.539062 159.902344 133.015625 159.902344 C 129.417969 159.902344 126.214844 159.292969 123.410156 158.070312 C 120.605469 156.851562 118.402344 154.976562 116.804688 152.449219 C 115.207031 149.917969 114.410156 146.707031 114.410156 142.804688 L 126.335938 142.804688 C 126.335938 145.671875 126.933594 147.648438 128.128906 148.730469 C 129.324219 149.8125 130.953125 150.355469 133.015625 150.355469 C 134.375 150.355469 135.554688 150.03125 136.5625 149.390625 C 137.570312 148.75 138.347656 147.820312 138.902344 146.597656 C 139.457031 145.378906 139.734375 143.886719 139.734375 142.125 Z M 139.734375 104.199219 "/>
<path style=" stroke:none;fill-rule:nonzero;fill:rgb(100%,100%,100%);fill-opacity:1;" d="M 194.457031 130.503906 C 194.457031 126.726562 194.003906 123.558594 193.097656 120.992188 C 192.191406 118.425781 190.871094 116.488281 189.136719 115.179688 C 187.398438 113.871094 185.3125 113.21875 182.871094 113.21875 C 180.378906 113.21875 178.277344 113.871094 176.566406 115.179688 C 174.855469 116.488281 173.554688 118.425781 172.664062 120.992188 C 171.769531 123.558594 171.320312 126.726562 171.320312 130.503906 L 171.320312 132.804688 C 171.320312 136.554688 171.773438 139.71875 172.679688 142.296875 C 173.585938 144.875 174.902344 146.832031 176.625 148.164062 C 178.347656 149.5 180.457031 150.164062 182.945312 150.164062 C 185.386719 150.164062 187.46875 149.5 189.191406 148.164062 C 190.914062 146.832031 192.222656 144.875 193.117188 142.296875 C 194.011719 139.71875 194.457031 136.554688 194.457031 132.804688 Z M 206.421875 132.804688 C 206.421875 138.441406 205.425781 143.277344 203.4375 147.3125 C 201.453125 151.355469 198.695312 154.460938 195.175781 156.636719 C 191.652344 158.8125 187.574219 159.902344 182.945312 159.902344 C 178.316406 159.902344 174.222656 158.8125 170.664062 156.636719 C 167.101562 154.460938 164.316406 151.355469 162.304688 147.3125 C 160.289062 143.277344 159.28125 138.441406 159.28125 132.804688 L 159.28125 130.578125 C 159.28125 124.941406 160.28125 120.105469 162.28125 116.066406 C 164.285156 112.027344 167.058594 108.914062 170.605469 106.726562 C 174.152344 104.539062 178.242188 103.441406 182.871094 103.441406 C 187.5 103.441406 191.582031 104.539062 195.117188 106.726562 C 198.652344 108.914062 201.421875 112.027344 203.421875 116.066406 C 205.421875 120.105469 206.421875 124.941406 206.421875 130.578125 Z M 206.421875 132.804688 "/>
<path style=" stroke:none;fill-rule:nonzero;fill:rgb(100%,100%,100%);fill-opacity:1;" d="M 232.046875 128.578125 L 243.105469 104.199219 L 256.011719 104.199219 L 238.085938 139.257812 L 238.085938 159.148438 L 226.046875 159.148438 L 226.046875 139.257812 L 208.082031 104.199219 L 221.023438 104.199219 Z M 232.046875 128.578125 "/>
<path style=" stroke:none;fill-rule:nonzero;fill:rgb(100%,100%,100%);fill-opacity:1;" d="M 45.925781 201.652344 C 45.925781 202.359375 45.558594 202.695312 44.851562 202.695312 C 44.148438 202.695312 43.8125 202.359375 43.8125 201.652344 C 43.8125 200.949219 44.148438 200.582031 44.851562 200.582031 C 45.558594 200.582031 45.925781 200.949219 45.925781 201.652344 M 42.136719 201.652344 C 42.136719 202.359375 41.765625 202.695312 41.0625 202.695312 C 40.359375 202.695312 40.023438 202.359375 40.023438 201.652344 C 40.023438 200.949219 40.359375 200.582031 41.0625 200.582031 C 41.765625 200.582031 42.136719 200.949219 42.136719 201.652344 M 51.191406 177.773438 L 50.722656 179.382812 C 50.085938 177.941406 48.8125 177.238281 46.964844 177.238281 C 44.214844 177.238281 42.839844 178.714844 42.839844 181.699219 L 42.839844 184.28125 L 51.125 184.246094 L 51.125 191.324219 L 51.15625 191.324219 C 51.023438 195.449219 48.238281 197.496094 42.839844 197.496094 C 39.65625 197.496094 37.40625 196.589844 36.097656 194.777344 C 35.058594 193.371094 34.390625 191.023438 34.085938 187.703125 L 35.664062 187.199219 C 35.664062 193.269531 37.710938 195.953125 42.839844 195.917969 C 47.335938 195.851562 49.582031 194.273438 49.582031 191.191406 L 49.582031 185.6875 L 41.230469 185.6875 L 41.230469 181.429688 C 41.230469 177.976562 43.308594 175.828125 46.765625 175.828125 C 48.574219 175.828125 50.050781 176.46875 51.191406 177.773438 "/>
<path style=" stroke:none;fill-rule:nonzero;fill:rgb(100%,100%,100%);fill-opacity:1;" d="M 63.402344 184.148438 C 63.4375 180.089844 62.164062 178.074219 59.511719 178.074219 C 56.695312 178.074219 55.285156 180.089844 55.285156 184.148438 C 55.285156 185.6875 55.621094 186.964844 56.328125 187.96875 C 57.097656 189.078125 58.203125 189.613281 59.648438 189.613281 L 63.335938 189.613281 C 63.371094 187.300781 63.371094 185.453125 63.402344 184.148438 M 69.542969 191.023438 L 64.675781 191.023438 C 64.507812 192.898438 63.90625 194.375 62.867188 195.449219 C 61.792969 196.621094 60.351562 197.226562 58.507812 197.226562 C 57.535156 197.226562 56.527344 197.027344 55.554688 196.621094 L 54.917969 195.148438 C 55.925781 195.648438 57.097656 195.886719 58.472656 195.886719 C 59.882812 195.886719 60.988281 195.414062 61.792969 194.441406 C 62.53125 193.570312 62.964844 192.429688 63.101562 191.023438 L 59.648438 191.023438 C 57.769531 190.988281 56.292969 190.285156 55.21875 188.941406 C 54.246094 187.703125 53.777344 186.125 53.777344 184.148438 C 53.777344 181.964844 54.214844 180.257812 55.085938 178.949219 C 56.058594 177.472656 57.535156 176.734375 59.511719 176.734375 C 63.101562 176.734375 64.878906 179.214844 64.878906 184.148438 C 64.878906 186.191406 64.84375 188.035156 64.777344 189.613281 L 69.542969 189.613281 Z M 69.542969 191.023438 "/>
<path style=" stroke:none;fill-rule:nonzero;fill:rgb(100%,100%,100%);fill-opacity:1;" d="M 74.945312 191.023438 L 68.707031 191.023438 L 68.707031 189.613281 L 74.945312 189.613281 Z M 74.945312 191.023438 "/>
<path style=" stroke:none;fill-rule:nonzero;fill:rgb(100%,100%,100%);fill-opacity:1;" d="M 80.378906 191.023438 L 74.140625 191.023438 L 74.140625 189.613281 L 80.378906 189.613281 Z M 80.378906 191.023438 "/>
<path style=" stroke:none;fill-rule:nonzero;fill:rgb(100%,100%,100%);fill-opacity:1;" d="M 85.8125 191.023438 L 79.574219 191.023438 L 79.574219 189.613281 L 85.8125 189.613281 Z M 85.8125 191.023438 "/>
<path style=" stroke:none;fill-rule:nonzero;fill:rgb(100%,100%,100%);fill-opacity:1;" d="M 91.246094 191.023438 L 85.007812 191.023438 L 85.007812 189.613281 L 91.246094 189.613281 Z M 91.246094 191.023438 "/>
<path style=" stroke:none;fill-rule:nonzero;fill:rgb(100%,100%,100%);fill-opacity:1;" d="M 96.679688 191.023438 L 90.441406 191.023438 L 90.441406 189.613281 L 96.679688 189.613281 Z M 96.679688 191.023438 "/>
<path style=" stroke:none;fill-rule:nonzero;fill:rgb(100%,100%,100%);fill-opacity:1;" d="M 102.113281 191.023438 L 95.875 191.023438 L 95.875 189.613281 L 102.113281 189.613281 Z M 102.113281 191.023438 "/>
<path style=" stroke:none;fill-rule:nonzero;fill:rgb(100%,100%,100%);fill-opacity:1;" d="M 107.546875 191.023438 L 101.308594 191.023438 L 101.308594 189.613281 L 107.546875 189.613281 Z M 107.546875 191.023438 "/>
<path style=" stroke:none;fill-rule:nonzero;fill:rgb(100%,100%,100%);fill-opacity:1;" d="M 112.984375 191.023438 L 106.746094 191.023438 L 106.746094 189.613281 L 112.984375 189.613281 Z M 112.984375 191.023438 "/>
<path style=" stroke:none;fill-rule:nonzero;fill:rgb(100%,100%,100%);fill-opacity:1;" d="M 118.417969 191.023438 L 112.179688 191.023438 L 112.179688 189.613281 L 118.417969 189.613281 Z M 118.417969 191.023438 "/>
<path style=" stroke:none;fill-rule:nonzero;fill:rgb(100%,100%,100%);fill-opacity:1;" d="M 123.851562 191.023438 L 117.613281 191.023438 L 117.613281 189.613281 L 123.851562 189.613281 Z M 123.851562 191.023438 "/>
<path style=" stroke:none;fill-rule:nonzero;fill:rgb(100%,100%,100%);fill-opacity:1;" d="M 129.285156 191.023438 L 123.046875 191.023438 L 123.046875 189.613281 L 129.285156 189.613281 Z M 129.285156 191.023438 "/>
<path style=" stroke:none;fill-rule:nonzero;fill:rgb(100%,100%,100%);fill-opacity:1;" d="M 134.71875 191.023438 L 128.480469 191.023438 L 128.480469 189.613281 L 134.71875 189.613281 Z M 134.71875 191.023438 "/>
<path style=" stroke:none;fill-rule:nonzero;fill:rgb(100%,100%,100%);fill-opacity:1;" d="M 140.152344 191.023438 L 133.914062 191.023438 L 133.914062 189.613281 L 140.152344 189.613281 Z M 140.152344 191.023438 "/>
<path style=" stroke:none;fill-rule:nonzero;fill:rgb(100%,100%,100%);fill-opacity:1;" d="M 145.589844 191.023438 L 139.351562 191.023438 L 139.351562 189.613281 L 145.589844 189.613281 Z M 145.589844 191.023438 "/>
<path style=" stroke:none;fill-rule:nonzero;fill:rgb(100%,100%,100%);fill-opacity:1;" d="M 155.917969 196.488281 C 155.917969 197.191406 155.582031 197.527344 154.878906 197.527344 C 154.175781 197.527344 153.804688 197.191406 153.804688 196.488281 C 153.804688 195.785156 154.175781 195.414062 154.878906 195.414062 C 155.582031 195.414062 155.917969 195.785156 155.917969 196.488281 M 167.1875 191.023438 L 144.515625 191.023438 L 144.515625 189.613281 L 160.347656 189.613281 L 160.347656 187.097656 C 160.347656 184.046875 160.078125 181.867188 159.542969 180.558594 C 158.703125 178.410156 156.992188 177.339844 154.410156 177.339844 C 152.632812 177.339844 150.886719 178.144531 149.246094 179.71875 L 148.136719 178.613281 C 150.082031 176.769531 152.164062 175.828125 154.410156 175.828125 C 157.5625 175.828125 159.707031 177.003906 160.816406 179.382812 C 161.585938 181.027344 161.988281 183.578125 161.988281 187.097656 L 161.988281 189.613281 L 167.1875 189.613281 Z M 167.1875 191.023438 "/>
<path style=" stroke:none;fill-rule:nonzero;fill:rgb(100%,100%,100%);fill-opacity:1;" d="M 172.457031 191.023438 L 166.21875 191.023438 L 166.21875 189.613281 L 172.457031 189.613281 Z M 172.457031 191.023438 "/>
<path style=" stroke:none;fill-rule:nonzero;fill:rgb(100%,100%,100%);fill-opacity:1;" d="M 177.890625 191.023438 L 171.652344 191.023438 L 171.652344 189.613281 L 177.890625 189.613281 Z M 177.890625 191.023438 "/>
<path style=" stroke:none;fill-rule:nonzero;fill:rgb(100%,100%,100%);fill-opacity:1;" d="M 183.324219 191.023438 L 177.085938 191.023438 L 177.085938 189.613281 L 183.324219 189.613281 Z M 183.324219 191.023438 "/>
<path style=" stroke:none;fill-rule:nonzero;fill:rgb(100%,100%,100%);fill-opacity:1;" d="M 188.761719 191.023438 L 182.523438 191.023438 L 182.523438 189.613281 L 188.761719 189.613281 Z M 188.761719 191.023438 "/>
<path style=" stroke:none;fill-rule:nonzero;fill:rgb(100%,100%,100%);fill-opacity:1;" d="M 194.195312 191.023438 L 187.957031 191.023438 L 187.957031 189.613281 L 194.195312 189.613281 Z M 194.195312 191.023438 "/>
<path style=" stroke:none;fill-rule:nonzero;fill:rgb(100%,100%,100%);fill-opacity:1;" d="M 199.628906 191.023438 L 193.390625 191.023438 L 193.390625 189.613281 L 199.628906 189.613281 Z M 199.628906 191.023438 "/>
<path style=" stroke:none;fill-rule:nonzero;fill:rgb(100%,100%,100%);fill-opacity:1;" d="M 205.0625 191.023438 L 198.824219 191.023438 L 198.824219 189.613281 L 205.0625 189.613281 Z M 205.0625 191.023438 "/>
<path style=" stroke:none;fill-rule:nonzero;fill:rgb(100%,100%,100%);fill-opacity:1;" d="M 210.496094 191.023438 L 204.257812 191.023438 L 204.257812 189.613281 L 210.496094 189.613281 Z M 210.496094 191.023438 "/>
<path style=" stroke:none;fill-rule:nonzero;fill:rgb(100%,100%,100%);fill-opacity:1;" d="M 215.929688 191.023438 L 209.691406 191.023438 L 209.691406 189.613281 L 215.929688 189.613281 Z M 215.929688 191.023438 "/>
<path style=" stroke:none;fill-rule:nonzero;fill:rgb(100%,100%,100%);fill-opacity:1;" d="M 221.363281 191.023438 L 215.125 191.023438 L 215.125 189.613281 L 221.363281 189.613281 Z M 221.363281 191.023438 "/>
<path style=" stroke:none;fill-rule:nonzero;fill:rgb(100%,100%,100%);fill-opacity:1;" d="M 226.800781 191.023438 L 220.5625 191.023438 L 220.5625 189.613281 L 226.800781 189.613281 Z M 226.800781 191.023438 "/>
<path style=" stroke:none;fill-rule:nonzero;fill:rgb(100%,100%,100%);fill-opacity:1;" d="M 232.234375 191.023438 L 225.996094 191.023438 L 225.996094 189.613281 L 232.234375 189.613281 Z M 232.234375 191.023438 "/>
<path style=" stroke:none;fill-rule:nonzero;fill:rgb(100%,100%,100%);fill-opacity:1;" d="M 237.667969 191.023438 L 231.429688 191.023438 L 231.429688 189.613281 L 237.667969 189.613281 Z M 237.667969 191.023438 "/>
<path style=" stroke:none;fill-rule:nonzero;fill:rgb(100%,100%,100%);fill-opacity:1;" d="M 243.101562 191.023438 L 236.863281 191.023438 L 236.863281 189.613281 L 243.101562 189.613281 Z M 243.101562 191.023438 "/>
<path style=" stroke:none;fill-rule:nonzero;fill:rgb(100%,100%,100%);fill-opacity:1;" d="M 246.523438 170.394531 C 246.523438 171.132812 246.1875 171.5 245.484375 171.5 C 244.777344 171.5 244.410156 171.132812 244.410156 170.394531 C 244.410156 169.691406 244.777344 169.324219 245.484375 169.324219 C 246.1875 169.324219 246.523438 169.691406 246.523438 170.394531 M 249.542969 185.421875 C 249.542969 188.742188 247.394531 191.023438 244.007812 191.023438 L 241.792969 191.023438 L 241.792969 189.613281 L 243.804688 189.613281 C 246.589844 189.613281 247.964844 188.136719 247.964844 185.152344 L 247.964844 176.367188 L 249.542969 175.828125 Z M 249.542969 185.421875 "/>
<path style=" stroke:none;fill-rule:nonzero;fill:rgb(100%,100%,100%);fill-opacity:1;" d="M 254.441406 191.023438 L 252.863281 191.023438 L 252.863281 169.859375 L 254.441406 169.390625 Z M 256.015625 197.496094 L 250.515625 197.496094 L 251.21875 196.554688 L 252.089844 196.554688 L 252.089844 196.1875 C 252.089844 194.609375 252.832031 193.839844 254.304688 193.839844 C 254.84375 193.839844 255.3125 194.039062 255.714844 194.441406 L 255.144531 195.246094 C 254.84375 194.914062 254.507812 194.746094 254.136719 194.746094 C 253.433594 194.746094 253.066406 195.214844 253.066406 196.1875 L 253.066406 196.554688 L 256.015625 196.554688 Z M 256.015625 197.496094 "/>
</g>
</svg>
