<svg id="nav-bg" xmlns="http://www.w3.org/2000/svg" width="501.669" height="930.546" viewBox="0 0 501.669 930.546">
  <path id="Path_1" data-name="Path 1" d="M0,0S-28.9,653.483,166.835,776.512,500.169,930.546,500.169,930.546H0Z" transform="translate(1.5)" fill="rgba(28,248,26,0.54)"/>
  <g id="surface6" transform="translate(138.065 430.546)" opacity="0.1">
    <path id="Path_2" data-name="Path 2" d="M204.43,115.086h-2.938V92.809h2.938Zm7.144-19.875H194.363v-2.4h17.211Zm0,0" transform="translate(-35.32 -92.809)"/>
    <path id="Path_3" data-name="Path 3" d="M220.145,94.766l-.032-1.957h1.942l8.523,22.277h-3.043Zm7.023,14.488H214.637v-2.4h12.531Zm-13.16,5.832h-3.059l8.508-22.277h1.957l-.047,1.957Zm0,0" transform="translate(-35.32 -92.809)"/>
    <path id="Path_4" data-name="Path 4" d="M240.859,101.359l5.325-8.55h3.476l-7.023,11.031,7.191,11.246h-3.5l-5.465-8.723-5.492,8.723h-3.488l7.207-11.246-7.055-11.031h3.489Zm0,0" transform="translate(-35.32 -92.809)"/>
    <path id="Path_5" data-name="Path 5" d="M256.422,115.086h-2.969V92.809h2.969Zm0,0" transform="translate(-35.32 -92.809)"/>
    <path id="Path_6" data-name="Path 6" d="M80.344,173.711H68.492L47.168,138.348v35.363H35.32V118.762H47.168l21.359,35.4v-35.4H80.344Zm0,0" transform="translate(-35.32 -92.809)" fill="#1cf81a"/>
    <path id="Path_7" data-name="Path 7" d="M111.176,154.766H89.625v-9.211h21.551Zm0,0" transform="translate(-35.32 -92.809)"/>
    <path id="Path_8" data-name="Path 8" d="M142.914,118.762h11.813v37.926a17.819,17.819,0,0,1-2.434,9.492,16.38,16.38,0,0,1-6.621,6.133,20.464,20.464,0,0,1-9.477,2.152,23.819,23.819,0,0,1-9.6-1.832,14.415,14.415,0,0,1-6.606-5.621,17.775,17.775,0,0,1-2.4-9.645h11.926q0,4.307,1.793,5.926a7.009,7.009,0,0,0,4.886,1.625,6.452,6.452,0,0,0,3.547-.965,6.269,6.269,0,0,0,2.344-2.793,10.832,10.832,0,0,0,.828-4.472Zm0,0" transform="translate(-35.32 -92.809)"/>
    <path id="Path_9" data-name="Path 9" d="M197.637,145.066a28.908,28.908,0,0,0-1.356-9.511,12.088,12.088,0,0,0-3.965-5.813,11.046,11.046,0,0,0-12.566,0,12.009,12.009,0,0,0-3.906,5.813,29.156,29.156,0,0,0-1.34,9.511v2.3a28.847,28.847,0,0,0,1.359,9.492,12.348,12.348,0,0,0,3.942,5.868,10,10,0,0,0,6.32,2,9.885,9.885,0,0,0,6.246-2,12.214,12.214,0,0,0,3.926-5.868,29.206,29.206,0,0,0,1.34-9.492Zm11.965,2.3a32.561,32.561,0,0,1-2.985,14.512,22.115,22.115,0,0,1-8.262,9.32,22.763,22.763,0,0,1-12.23,3.266,23.028,23.028,0,0,1-12.281-3.266,22.225,22.225,0,0,1-8.36-9.32,32.192,32.192,0,0,1-3.019-14.512V145.14a32.4,32.4,0,0,1,3-14.512,22.293,22.293,0,0,1,8.32-9.34,24.5,24.5,0,0,1,24.512,0,22.341,22.341,0,0,1,8.305,9.34,32.4,32.4,0,0,1,3,14.512Zm0,0" transform="translate(-35.32 -92.809)"/>
    <path id="Path_10" data-name="Path 10" d="M235.227,143.141l11.058-24.379h12.906L241.266,153.82v19.891H229.227V153.82l-17.965-35.058h12.945Zm0,0" transform="translate(-35.32 -92.809)"/>
    <path id="Path_11" data-name="Path 11" d="M48.1,218.168a.888.888,0,0,1-1.02.988.866.866,0,0,1-.988-.988.889.889,0,0,1,.988-1.02.911.911,0,0,1,1.02,1.02m-3.6,0a.888.888,0,0,1-1.02.988.866.866,0,0,1-.988-.988.889.889,0,0,1,.988-1.02.911.911,0,0,1,1.02,1.02m8.6-22.676-.445,1.531a3.521,3.521,0,0,0-3.566-2.039c-2.613,0-3.918,1.4-3.918,4.235v2.453l7.867-.031v6.718h.031c-.129,3.918-2.773,5.86-7.9,5.86q-4.535,0-6.4-2.578c-.984-1.34-1.621-3.567-1.91-6.719l1.5-.481c0,5.766,1.945,8.313,6.816,8.282q6.4-.1,6.4-4.493v-5.222H43.65v-4.043c0-3.277,1.973-5.317,5.254-5.317a5.314,5.314,0,0,1,4.2,1.844" transform="translate(-35.32 -92.809)"/>
    <path id="Path_12" data-name="Path 12" d="M64.7,201.543c.031-3.852-1.18-5.762-3.691-5.762-2.676,0-4.016,1.91-4.016,5.762a6.2,6.2,0,0,0,.988,3.633,3.594,3.594,0,0,0,3.152,1.558h3.5c.031-2.2.031-3.949.063-5.191m5.828,6.531H65.91a6.709,6.709,0,0,1-1.719,4.2,5.334,5.334,0,0,1-4.141,1.688,7.348,7.348,0,0,1-2.8-.574l-.609-1.4a7.411,7.411,0,0,0,3.379.7,3.857,3.857,0,0,0,3.152-1.371,5.753,5.753,0,0,0,1.242-3.246H61.133a5.24,5.24,0,0,1-4.2-1.976,7.126,7.126,0,0,1-1.371-4.555,8.711,8.711,0,0,1,1.242-4.934,4.7,4.7,0,0,1,4.207-2.1c3.406,0,5.094,2.355,5.094,7.035,0,1.945-.035,3.7-.1,5.191h4.523Zm0,0" transform="translate(-35.32 -92.809)"/>
    <path id="Path_13" data-name="Path 13" d="M75.656,208.074H69.73v-1.34h5.926Zm0,0" transform="translate(-35.32 -92.809)"/>
    <path id="Path_14" data-name="Path 14" d="M80.816,208.074H74.891v-1.34h5.926Zm0,0" transform="translate(-35.32 -92.809)"/>
    <path id="Path_15" data-name="Path 15" d="M85.977,208.074H80.051v-1.34h5.926Zm0,0" transform="translate(-35.32 -92.809)"/>
    <path id="Path_16" data-name="Path 16" d="M91.133,208.074H85.211v-1.34h5.922Zm0,0" transform="translate(-35.32 -92.809)"/>
    <path id="Path_17" data-name="Path 17" d="M96.293,208.074H90.371v-1.34h5.922Zm0,0" transform="translate(-35.32 -92.809)"/>
    <path id="Path_18" data-name="Path 18" d="M101.453,208.074H95.531v-1.34h5.922Zm0,0" transform="translate(-35.32 -92.809)"/>
    <path id="Path_19" data-name="Path 19" d="M106.613,208.074h-5.925v-1.34h5.925Zm0,0" transform="translate(-35.32 -92.809)"/>
    <path id="Path_20" data-name="Path 20" d="M111.773,208.074h-5.925v-1.34h5.925Zm0,0" transform="translate(-35.32 -92.809)"/>
    <path id="Path_21" data-name="Path 21" d="M116.934,208.074h-5.926v-1.34h5.926Zm0,0" transform="translate(-35.32 -92.809)"/>
    <path id="Path_22" data-name="Path 22" d="M122.09,208.074h-5.922v-1.34h5.922Zm0,0" transform="translate(-35.32 -92.809)"/>
    <path id="Path_23" data-name="Path 23" d="M127.25,208.074h-5.922v-1.34h5.922Zm0,0" transform="translate(-35.32 -92.809)"/>
    <path id="Path_24" data-name="Path 24" d="M132.41,208.074h-5.922v-1.34h5.922Zm0,0" transform="translate(-35.32 -92.809)"/>
    <path id="Path_25" data-name="Path 25" d="M137.57,208.074h-5.925v-1.34h5.925Zm0,0" transform="translate(-35.32 -92.809)"/>
    <path id="Path_26" data-name="Path 26" d="M142.73,208.074H136.8v-1.34h5.925Zm0,0" transform="translate(-35.32 -92.809)"/>
    <path id="Path_27" data-name="Path 27" d="M152.539,213.262a.864.864,0,0,1-.988.988.887.887,0,0,1-1.02-.988.908.908,0,0,1,1.02-1.016.886.886,0,0,1,.988,1.016m10.7-5.188H141.711v-1.34h15.031v-2.386a17.875,17.875,0,0,0-.765-6.211q-1.189-3.058-4.872-3.059a7.129,7.129,0,0,0-4.906,2.262l-1.051-1.051a8.554,8.554,0,0,1,5.957-2.641c2.993,0,5.032,1.114,6.083,3.375.734,1.559,1.113,3.981,1.113,7.325v2.386h4.937Zm0,0" transform="translate(-35.32 -92.809)"/>
    <path id="Path_28" data-name="Path 28" d="M168.238,208.074h-5.922v-1.34h5.922Zm0,0" transform="translate(-35.32 -92.809)"/>
    <path id="Path_29" data-name="Path 29" d="M173.4,208.074h-5.921v-1.34H173.4Zm0,0" transform="translate(-35.32 -92.809)"/>
    <path id="Path_30" data-name="Path 30" d="M178.559,208.074h-5.922v-1.34h5.922Zm0,0" transform="translate(-35.32 -92.809)"/>
    <path id="Path_31" data-name="Path 31" d="M183.719,208.074H177.8v-1.34h5.922Zm0,0" transform="translate(-35.32 -92.809)"/>
    <path id="Path_32" data-name="Path 32" d="M188.879,208.074h-5.926v-1.34h5.926Zm0,0" transform="translate(-35.32 -92.809)"/>
    <path id="Path_33" data-name="Path 33" d="M194.035,208.074h-5.922v-1.34h5.922Zm0,0" transform="translate(-35.32 -92.809)"/>
    <path id="Path_34" data-name="Path 34" d="M199.2,208.074h-5.922v-1.34H199.2Zm0,0" transform="translate(-35.32 -92.809)"/>
    <path id="Path_35" data-name="Path 35" d="M204.355,208.074h-5.921v-1.34h5.921Zm0,0" transform="translate(-35.32 -92.809)"/>
    <path id="Path_36" data-name="Path 36" d="M209.516,208.074h-5.922v-1.34h5.922Zm0,0" transform="translate(-35.32 -92.809)"/>
    <path id="Path_37" data-name="Path 37" d="M214.676,208.074h-5.922v-1.34h5.922Zm0,0" transform="translate(-35.32 -92.809)"/>
    <path id="Path_38" data-name="Path 38" d="M219.836,208.074H213.91v-1.34h5.926Zm0,0" transform="translate(-35.32 -92.809)"/>
    <path id="Path_39" data-name="Path 39" d="M224.992,208.074H219.07v-1.34h5.922Zm0,0" transform="translate(-35.32 -92.809)"/>
    <path id="Path_40" data-name="Path 40" d="M230.152,208.074H224.23v-1.34h5.922Zm0,0" transform="translate(-35.32 -92.809)"/>
    <path id="Path_41" data-name="Path 41" d="M235.313,208.074h-5.922v-1.34h5.922Zm0,0" transform="translate(-35.32 -92.809)"/>
    <path id="Path_42" data-name="Path 42" d="M238.563,188.488c0,.7-.321,1.051-.989,1.051a.92.92,0,0,1-1.019-1.051.91.91,0,0,1,1.019-1.019.889.889,0,0,1,.989,1.019m2.863,14.266a4.981,4.981,0,0,1-5.254,5.32h-2.1v-1.34h1.91c2.641,0,3.946-1.4,3.946-4.234v-8.344l1.5-.508Zm0,0" transform="translate(-35.32 -92.809)" fill="#1cf81a"/>
    <path id="Path_43" data-name="Path 43" d="M246.078,208.074h-1.5v-20.1l1.5-.446Zm1.5,6.145h-5.222l.668-.891h.828v-.351c0-1.5.7-2.231,2.1-2.231a1.837,1.837,0,0,1,1.34.574l-.543.766a1.259,1.259,0,0,0-.953-.477c-.668,0-1.02.446-1.02,1.368v.351h2.8Zm0,0" transform="translate(-35.32 -92.809)" fill="#1cf81a"/>
  </g>
</svg>
